<svg width="91" height="87" viewBox="0 0 91 87" fill="none" xmlns="http://www.w3.org/2000/svg">
<path d="M3.60229 2.30831V13.7425H8.16523V4.61662H17.3448V0H5.9106C5.26642 0 4.72066 0.22367 4.27332 0.67102C3.82597 1.11837 3.60229 1.66413 3.60229 2.30831ZM90.6023 13.7425V2.30831C90.6023 1.66413 90.3786 1.11837 89.9313 0.67102C89.4839 0.22367 88.9382 0 88.294 0H76.8598V4.61662H86.0394V13.7425H90.6023ZM86.0394 82.4371H76.8598V87H88.294C88.9382 87 89.4839 86.7763 89.9313 86.329C90.3786 85.8816 90.6023 85.3538 90.6023 84.7454V73.2575H86.0394V82.4371ZM17.3448 87V82.4371H8.16523V73.2575H3.60229V84.7454C3.60229 85.3538 3.82597 85.8816 4.27332 86.329C4.72066 86.7763 5.26642 87 5.9106 87H17.3448Z" fill="#1864AB"/>
<circle cx="30.457" cy="39.3049" r="5.31175" fill="#DEE2E6"/>
<circle cx="30.457" cy="52.5852" r="5.31175" fill="#DEE2E6"/>
<circle cx="30.457" cy="65.8645" r="5.31175" fill="#DEE2E6"/>
<circle cx="43.7365" cy="26.0266" r="5.31175" fill="#DEE2E6"/>
<circle cx="43.7365" cy="52.5852" r="5.31175" fill="#DEE2E6"/>
<circle cx="43.7365" cy="65.8645" r="5.31175" fill="#DEE2E6"/>
<circle cx="57.0156" cy="26.0266" r="5.31175" fill="#DEE2E6"/>
<circle cx="31.8452" cy="27" r="14" fill="white"/>
<circle cx="32" cy="27" r="22" fill="white"/>
<circle cx="31.8452" cy="27.2427" r="8.8286" fill="#DEE2E6"/>
<circle cx="57.0156" cy="39.3049" r="5.31175" fill="#DEE2E6"/>
<circle cx="57.0156" cy="52.5852" r="5.31175" fill="#DEE2E6"/>
<circle cx="57.0156" cy="65.8645" r="5.31175" fill="#DEE2E6"/>
<circle cx="70.2954" cy="26.0266" r="5.31175" fill="#DEE2E6"/>
<circle cx="70.2954" cy="39.3049" r="5.31175" fill="#DEE2E6"/>
<circle cx="70.2954" cy="52.5852" r="5.31175" fill="#DEE2E6"/>
<circle cx="70.2954" cy="65.8645" r="5.31175" fill="#DEE2E6"/>
<path d="M15 62.4992L25.3312 39.9542" stroke="#1864AB" stroke-width="5"/>
<circle cx="31.8598" cy="26.9642" r="16.1858" transform="rotate(25.9314 31.8598 26.9642)" stroke="#1864AB" stroke-width="5"/>
</svg>
