<svg width="87" height="87" viewBox="0 0 87 87" fill="none" xmlns="http://www.w3.org/2000/svg">
<path d="M0 2.30831V13.7425H4.56294V4.61662H13.7425V0H2.30831C1.66412 0 1.11837 0.22367 0.67102 0.67102C0.223673 1.11837 0 1.66413 0 2.30831ZM87 13.7425V2.30831C87 1.66413 86.7763 1.11837 86.329 0.67102C85.8816 0.22367 85.3359 0 84.6917 0H73.2575V4.61662H82.4371V13.7425H87ZM82.4371 82.4371H73.2575V87H84.6917C85.3359 87 85.8816 86.7763 86.329 86.329C86.7763 85.8816 87 85.3538 87 84.7454V73.2575H82.4371V82.4371ZM13.7425 87V82.4371H4.56294V73.2575H0V84.7454C0 85.3538 0.223673 85.8816 0.67102 86.329C1.11837 86.7763 1.66412 87 2.30831 87H13.7425Z" fill="#1864AB"/>
<circle cx="21.2787" cy="21.2782" r="5.9257" fill="#DEE2E6"/>
<circle cx="21.2787" cy="36.0917" r="5.9257" fill="#DEE2E6"/>
<circle cx="21.2787" cy="50.9071" r="5.9257" fill="#DEE2E6"/>
<circle cx="21.2787" cy="65.7206" r="5.9257" fill="#DEE2E6"/>
<circle cx="36.0932" cy="21.2782" r="5.9257" fill="#DEE2E6"/>
<circle cx="36.0932" cy="36.0917" r="5.9257" fill="#DEE2E6"/>
<circle cx="36.0932" cy="50.9071" r="5.9257" fill="#DEE2E6"/>
<circle cx="36.0932" cy="65.7206" r="5.9257" fill="#DEE2E6"/>
<circle cx="50.9071" cy="21.2782" r="5.9257" fill="#DEE2E6"/>
<circle cx="50.9071" cy="36.0917" r="5.9257" fill="#DEE2E6"/>
<circle cx="50.9071" cy="50.9071" r="5.9257" fill="#DEE2E6"/>
<circle cx="50.9071" cy="65.7206" r="5.9257" fill="#DEE2E6"/>
<circle cx="65.7216" cy="21.2782" r="5.9257" fill="#DEE2E6"/>
<circle cx="65.7216" cy="36.0917" r="5.9257" fill="#DEE2E6"/>
<circle cx="65.7216" cy="50.9071" r="5.9257" fill="#DEE2E6"/>
<circle cx="65.7216" cy="65.7206" r="5.9257" fill="#DEE2E6"/>
<path d="M87 33.8232H0V38.9409H87V33.8232Z" fill="#1864AB"/>
<rect x="15" y="39" width="57" height="3" fill="white"/>
</svg>
